/* XPM */
static char *_8716050d4b94e6bd6ddb86c7e354eeb0YjehTnI6NmOr5i3[] = {
/* columns rows colors chars-per-pixel */
"50 50 11 1 ",
"  c None",
". c #131B3B",
"X c #231F20",
"o c #351D24",
"O c #482224",
"+ c #62332C",
"@ c #13463F",
"# c #24703E",
"$ c #885435",
"% c #39B306",
"& c #229E24",
/* pixels */
"                                                  ",
"                                                  ",
"                                                  ",
"                         @@                       ",
"                        @%%@                      ",
"                      @@#%%#@@                    ",
"                   @@@&&%%%%&&@@@                 ",
"                  .#%%&&%%%%&&%%#.                ",
"                  .&%&&&%%%%&&&%&.                ",
"                 .&&&%&&%%%%&&&&&&.               ",
"                .&%%&%%&&%%&&%&&&%%.              ",
"               .#%%&&&&&%&&&%%&&&&%#.             ",
"             ..#&%&&%%&%%&&%&&&%%&&&#..           ",
"            ..#&&&&&%%&&&&%%&&&%%%#&&#..          ",
"           .@.&&#&&%%&&%&&&&%%&&%%&&&&.@.         ",
"           .@#&#&&&%%&%%%&&%%%&&&%&&#&&@.         ",
"          ..####&&&&&&%%%&&%%%&&&&&&####..        ",
"          ..##&&#&&&&&&%%&&%%&&&&&&#&&##..        ",
"         ..@@&%&###&&#&&%&&%&&#&&###&%&#@..       ",
"        ...@@#&#&&&##&&&&&#&&&&##&&&#&#@@...      ",
"        ..@#@###%%&###&&&##&&&###&%%###@#@..      ",
"        .@&#@###&&##&&#####&&#&&##&&###@#&@.      ",
"       .@@#@#@&####%%&##&&####&&&#####@@@#@@.     ",
"      .@.@@##@&#@##&%&#%&&#&&#&&&##@##@##@@.@.    ",
"      ....@#@@@@###&&##&%&##&%#&&###@@@@#@....    ",
"      ..@@#&@@@@##@#####&###%&###@##@@@@&#@@..    ",
"       .@@#@@##@@@###########&####@@@##@@#@@.     ",
"       .@.@@&&#@@@##@##@####@##@##@@@#&&@@.@.     ",
"      ....@@#&@@##@@@@#@@##@@##@@@##@@&#@@....    ",
"      ..@@.@#@@@##@@@@@@@@@#@@@@@@##@@@#@.#@..    ",
"      ..@@.@@.@&&#@@##@@##@##@##@@#&&@.@@.@@..    ",
"       .......@##@@###@&&#@@@@###@@&#@.......     ",
"         ..@@.@#@@@#&&@#&@@@#@###@@@#@.@@..       ",
"        ...#@.@@@.@&&@@@#@@##@@&&@.@@@.@@...      ",
"        ...@..@..@@##@#@@@&&#@@#&@@..@..@...      ",
"         .....@@.@@#@@##@@&#@@@@#@@.#@.....       ",
"          ...@@@...@@.@@#@@#@@.@@...@@@...        ",
"             .@..@@....@@..@@....@@..@.           ",
"             ....@@..@........@..@#....           ",
"              ...@..@#.@@..@@.@@..@...            ",
"                XO..@...@@#@...@..OX              ",
"               X++O...o..@@..o...O++X             ",
"               XO$++OOOo....oOOO++$OX             ",
"                ooooOO+oOOOOo+OOoooo              ",
"                  oO++oO++++Oo++Oo                ",
"                   ooOOX+$$+XOOoo                 ",
"                     oooO$+Oooo                   ",
"                        oOOo                      ",
"                                                  ",
"                                                  "
};
