/* XPM */
static char *_fbfc4b5e0d240bae07361b0a17b6be7ZqTXeyX8WQUPSqjr[] = {
/* columns rows colors chars-per-pixel */
"50 50 16 1 ",
"  c #131B3B",
". c #231F20",
"X c #351D24",
"o c #482224",
"O c #62332C",
"+ c #13463F",
"@ c #24703E",
"# c #446F0A",
"$ c #4C780E",
"% c #667C36",
"& c #885435",
"* c #39B306",
"= c #229E24",
"- c #69AB10",
"; c #74B916",
": c #9DBE53",
/* pixels */
";;;;;;;;;;;;;;;;;;;;;;;;;;;;;;;;;;;;;;;;;;;;;;;;;;",
";;;;;;;;;;;;;;;;;;;;;;;;;;;;;;;;;;;;;;;;;;;;;;;;;;",
";;;;;;;;;;;;;;;;;;;;;;;;++;;;;;;;;;;;;;;;;;;;;;;;;",
";;;;;;;;;;;;;:;;;;;;;;;+**+;;;;;;;;;;;:;;;;;;;;;;;",
";;;;;;;;:;;;;:;;;;;;;++@**@++;;;;:;;;;:;;;;;;;;;;-",
";;;;;;;::;;;;;;;;;+++==****==+++::;;;;;;;;;;;;;;--",
";;;::;;:;;;;;;;;; @**==****==**@ ;;;;;;;;;;;--;;-;",
";;;;::;;;;;;;;;;; =*===****===*= ;;;;;;;;;;;;--;;;",
";;;;;:;;;;;;;;;; ===*==****====== ;;;;;;;;;;;;-;;;",
";;;;;;;;;;;;;;; =**=**==**==*===** ;;;;;;;;;;;;;;;",
";;;::;;;::;;;; @**=====*===**====*@ ;;;;;;;;--;;;-",
";;::;;;;;::;  @=*==**=**==*===**===@  ;;;;;--;;;;;",
";;;;;;;;;;;  @=====**====**===***@==@  ;;;;;;;;;;;",
";;;;;;;;;; + ==@==**==*====**==**==== + ;;;;;;;;;;",
";;;;;;;;;; +@=@===**=***==***===*==@==+ ;;;;;;;;;;",
";;;;;;;;;  @@@@======***==***======@@@@  ;;;;;;;;;",
";;;;;;;;;  @@==@======**==**======@==@@  ;;;;;;;;;",
";;;;;;;;  ++=*=@@@==@==*==*==@==@@@=*=@+  ;;;;;;;;",
";;::;;;   ++@=@===@@=====@====@@===@=@++   --;;;--",
";;:::;:  +@+@@@**=@@@===@@===@@@=**@@@+@+  ---;--;",
";;;::;: +=@+@@@==@@==@@@@@==@==@@==@@@+@=+ ;--;-;;",
";;;;:; ++@+@+=@@@@**=@@==@@@@===@@@@@+++@++ ;-;;;;",
";;;;; + ++@@+=@+@@=*=@*==@==@===@@+@@+@@++ + ;;;;;",
";;;;;    +@++++@@@==@@=*=@@=*@==@@@++++@+    ;;;;;",
";;;;;  ++@=++++@@+@@@@@=@@@*=@@@+@@++++=@++  ;;--;",
";;;;;; ++@++@@+++@@@@@@@@@@@=@@@@+++@@++@++ ;;;;;;",
";;;;;; + ++==@+++@@+@@+@@@@+@@+@@+++@==++ + ;;;;;;",
";;;;;    ++@=++@@++++@++@@++@@+++@@++=@++    ;;;;;",
";;;;;  ++ +@+++@@+++++++++@++++++@@+++@+ @+  ;;;;;",
";;;;;  ++ ++ +==@++@@++@@+@@+@@++@==+ ++ ++  ;;;;-",
";;;;;;       +@@++@@@+==@++++@@@++=@+       ;;;;--",
";;;::;;:  ++ +@+++@==+@=+++@+@@@+++@+ ++  ;;--;;-;",
";;;;::;   @+ +++ +==+++@++@@++==+ +++ ++   ;;--;;;",
";;;;;:;   +  +  ++@@+@+++==@++@=++  +  +   ;;;-;;;",
";;;;;;;;     ++ ++@++@@++=@++++@++ @+     ;;;;;;;;",
";;;::;;$%   +++   ++ ++@++@++ ++   +++   $$;--;;;-",
";;::;;;$$%%$ +  ++    ++  ++    ++  + $$$$$--;;;;;",
";;;;;;$$$$$$    ++  +        +  +@    $$$$$$;;;;;;",
";;;;;;$$$$$$$   +  +@ ++  ++ ++  +   $$$$$$$;;;;;;",
";;;;;;$$$$$$$$$.o  +   ++@+   +  o.$$$$$$$$$;;;;;;",
";;;;;;$$$$$$$$.OOo   X  ++  X   oOO.$$$$$$$$;;;;;;",
";;;;;;;$$$$$$$.o&OOoooX    XoooOO&o.$$$$$;$;;;;;;;",
";;;;;;;$;$$$$$$XXXXooOXooooXOooXXXX$$$$$$$;;;;;;;;",
";;::;;;:%$$$%$$$$XoOOXoOOOOoXOOoX%$$$%$$$$;--;;;--",
";;:::;::;$$$%%$$$$XXoo.O&&O.ooXX%$$$$%%$$;;---;--;",
";;;::;:;;;;$$%$$$$$#XXXo&OoXXX$%$$$$$$%$;;;;--;-;;",
";;;;:;;;;;;$$;$$$$$$#$$XooX$$%$$$$$$$;$;;;;;;-;;;;",
";;;;;;;;;;;;;;$$$$$$$$$$$$$$$$$$;$$$$;;;;;;;;;;;;;",
";;;;;;;;;;;;;;;;;;;;;;;;;;;;;;;;;;;;;;;;;;;;;;;;;;",
";;;;;;::;;;:;;;;;;;;;;--;;;;;;;::;;;:;;;;;;;;;;--;"
};
