/* XPM */
static char *c057c23aa11a4c5de3beabb261b7567c905AmPrVabliNzg7[] = {
/* columns rows colors chars-per-pixel */
"50 50 17 1 ",
"  c #090909",
". c #2E2D33",
"X c #452820",
"o c #393945",
"O c #444357",
"+ c #52516B",
"@ c #963A03",
"# c #C66E06",
"$ c #69AB10",
"% c #74B916",
"& c #E5AF09",
"* c #FDFF0A",
"= c #9DBE53",
"- c #6A718B",
"; c #98B0BE",
": c #FFFFAD",
"> c #FFFFF2",
/* pixels */
"%%%%%%%%%%%%%%%%%%%%%%%%%%%%%%%%%%%%%%%%%%%%%%%%%%",
"%%%%%%%%%%%%%%%%%%%%%%%%%%%%%%%%%%%%%%%%%%%%%%%%%%",
"%%%%%%%%%%%%%%%%%%%%%%%%%%%%%%%%%%%%%%%%%%%%%%%%%%",
"%%%%%%%%%%%%%=%%%%%%%%%%%%%%%%%%%%%%%%=%%%%%%%%%%%",
"%%%%%%%%=%%%%=%%%%%%%%%%$%%%%%%%%=%%%%=%%%%%%%%%%$",
"%%%%%%%==%%%%%%%%%%%%%%$$%%%%%%%==%%%%%%%%%%%%%%$$",
"%%%==%%=%%%%%%%%%%%$$%%$%%%%==%%=%%%%%%%%%%%$$%%$%",
"%%%%==%%%%%%%%%%%%%%$$%%%%%%%==%%%%%%%%%%%%%%$$%%%",
"%%%%%=%%%%%%%%%%%%%%%$%%%%%%%%=%%%%%%%%%%%%%%%$%%%",
"%%%%%%%%%%%%%%%%%%%%%%%%%%%%%%%%%%%%%%%%%%%%%%%%%%",
"%%%==%%%==%%%%%%%%%$$%%%$%%%==%%%==%%%%%%%%%$$%%%$",
"%%==%%%%%==%%%%%%%$$%%%%%%%==%%%%%==%%%%%%%$$%%%%%",
"%%%%%%%%%%%%%%%%%%%%%%%%%%%%%%%%%%%%%%%%%%%%%%%%%%",
"%%%%%%%%%%%%%%%%%%%%%%%%%%%%%%%%%%%%%%%%%%%%%%%%%%",
"%%%%%%%%%%%%%%%%%%%%%%%%%%%%%%%%%%%%%%%%%%%%%%%%%%",
"%%%%%%%%%%%%%%%%%%%%%%%%%%%%%%%%%%%%%%%%%%%%%%%%%%",
"%%%%%%%%%%%%%%%%%%%%%%%%%%%%%%%%%%%%%%%%%%%%%%%%%%",
"%%%%%%%%%%%%%%%%%%%%%% >*    %%%%%%%%%%%%%%%%%%%%%",
"%%==%%%==%%%=%%%%%$$% &:>*;;; %%==%%%=%%%%%$$%%%$$",
"%%===%==%%%%==%%%%$$ >>*&#@X-; ==%%%%==%%%%$$$%$$%",
"%%%==%=%%%%%%=%%%%%$ >*:*&#@X; =%%%%%%=%%%%%$$%$%%",
"%%%%=%%%%%%%%%%%%%%% :&>>:&#-; %%%%%%%%%%%%%%$%%%%",
"%%%%%%%%%%%%%%%%%%%%% o>*&&;;o %%%%%%%%%%%%%%%%%%%",
"%%%%%%%%%%%%%%%%%%%%% o&+++OOo %%%%%%%%%%%%%%%%%%%",
"%%%%%%==%%%=%%%%%%%%% oO++O++o ==%%%=%%%%%%%%%%$$%",
"%%%%%%%%%%%%%%%%%%%%% o+OOO++o %%%%%%%%%%%%%%%%%%%",
"%%%%%%%%%%%%%%%%%%%%% o++O+++o %%%%%%%%%%%%%%%%%%%",
"%%%%%%%%%%%%%%%%%%%%% o++O+++o %%%%%%%%%%%%%%%%%%%",
"%%%%%%%%%%%%%=%%%%%%% .+++O++. %%%%%%%=%%%%%%%%%%%",
"%%%%%%%%=%%%%=%%%%%%%% .OOOO. %%%=%%%%=%%%%%%%%%%$",
"%%%%%%%==%%%%%%%%%%%%%%      %%%==%%%%%%%%%%%%%%$$",
"%%%==%%=%%%%%%%%%%%$$%%$%%%%==%%=%%%%%%%%%%%$$%%$%",
"%%%%==%%%%%%%%%%%%%%$$%%%%%%%==%%%%%%%%%%%%%%$$%%%",
"%%%%%=%%%%%%%%%%%%%%%$%%%%%%%%=%%%%%%%%%%%%%%%$%%%",
"%%%%%%%%%%%%%%%%%%%%%%%%%%%%%%%%%%%%%%%%%%%%%%%%%%",
"%%%==%%%==%%%%%%%%%$$%%%$%%%==%%%==%%%%%%%%%$$%%%$",
"%%==%%%%%==%%%%%%%$$%%%%%%%==%%%%%==%%%%%%%$$%%%%%",
"%%%%%%%%%%%%%%%%%%%%%%%%%%%%%%%%%%%%%%%%%%%%%%%%%%",
"%%%%%%%%%%%%%%%%%%%%%%%%%%%%%%%%%%%%%%%%%%%%%%%%%%",
"%%%%%%%%%%%%%%%%%%%%%%%%%%%%%%%%%%%%%%%%%%%%%%%%%%",
"%%%%%%%%%%%%%%%%%%%%%%%%%%%%%%%%%%%%%%%%%%%%%%%%%%",
"%%%%%%%%%%%%%%%%%%%%%%%%%%%%%%%%%%%%%%%%%%%%%%%%%%",
"%%%%%%%%%%%%%%%%%%%%%%%%%%%%%%%%%%%%%%%%%%%%%%%%%%",
"%%==%%%==%%%=%%%%%$$%%%$$%%==%%%==%%%=%%%%%$$%%%$$",
"%%===%==%%%%==%%%%$$$%$$%%%===%==%%%%==%%%%$$$%$$%",
"%%%==%=%%%%%%=%%%%%$$%$%%%%%==%=%%%%%%=%%%%%$$%$%%",
"%%%%=%%%%%%%%%%%%%%%$%%%%%%%%=%%%%%%%%%%%%%%%$%%%%",
"%%%%%%%%%%%%%%%%%%%%%%%%%%%%%%%%%%%%%%%%%%%%%%%%%%",
"%%%%%%%%%%%%%%%%%%%%%%%%%%%%%%%%%%%%%%%%%%%%%%%%%%",
"%%%%%%==%%%=%%%%%%%%%%$$%%%%%%%==%%%=%%%%%%%%%%$$%"
};
