/* XPM */
static char *_cd06218bf9a474db3a7dc7bc24a99daj5ZmU1iISjKeXJcf[] = {
/* columns rows colors chars-per-pixel */
"50 50 34 1 ",
"  c #020202",
". c #040404",
"X c #090909",
"o c #100909",
"O c #160908",
"+ c #10140A",
"@ c #181612",
"# c #3E0905",
"$ c #21310B",
"% c #24350C",
"& c #27231B",
"* c #3E3626",
"= c #660903",
"- c #6C0902",
"; c #730902",
": c #453D2D",
"> c #3A5D0B",
", c #3E610F",
"< c #3F6110",
"1 c #73610C",
"2 c #827150",
"3 c #51830E",
"4 c #598D13",
"5 c #67A414",
"6 c #69AB10",
"7 c #74B916",
"8 c #8BA84A",
"9 c #9DBE53",
"0 c #BDA472",
"q c #BFA674",
"w c #B7CA57",
"e c #DDC086",
"r c #ECCD8F",
"t c #FBDA98",
/* pixels */
"77777777777777777777777777777777777777777777777777",
"77777777777777777777777777777777777777777777777777",
"77777777777777777777777777777777777777777777777777",
"77777777777779777777777777777777777777977777777777",
"77777777977779777777777767777777797777977777777776",
"77777779977777777777777667777777997777777777777766",
"77799779777777777776677677779977977777777777667767",
"77779977777777777777667777777997777777777777766777",
"77777977777777777777767777777797777777777777776777",
"77777777777777777777777777777777777777777777777777",
"77799777997777777776677767779977799777777777667776",
"77997777799777777766777777799777779977777776677777",
"77777777777777777777777777777777777777777777777777",
"77777777777777777777777777777777777777777777777777",
"77777777777777777777777777777777777777777777777777",
"77777777777777777777777777777777777777777777777777",
"777777777777777777,w,,11>w>11,,w,77777777777777777",
"777777777777777777<22X##.2.##X22<77777777777777777",
"7799777997779777776$qX:::::::Xq%997779777776677766",
"77999799777799777766$X0000000X%9977779977776667667",
"777997977777797777763:* *** *:49777777977777667677",
"77779777777777777777$qtXtttXtq%7777777777777767777",
"777777777777777777777Xe&ttt&eX77777777777777777777",
"777777777777777777775XOeeeeeOX57777777777777777777",
"77777799777977777775&X;OX&XO;X&8977797777777777667",
"7777777777777777777Xt&=;OeO;=&tX777777777777777777",
"7777777777777777777XttX--o--XttX777777777777777777",
"7777777777777777777+rrXoo-ooXrr+777777777777777777",
"77777777777779777777++X--X--X++7777777977777777777",
"7777777797777977777777X@@X@@X777797777977777777776",
"7777777997777777777777XttXttX777997777777777777766",
"77799779777777777776677XXXX79977977777777777667767",
"77779977777777777777667777777997777777777777766777",
"77777977777777777777767777777797777777777777776777",
"77777777777777777777777777777777777777777777777777",
"77799777997777777776677767779977799777777777667776",
"77997777799777777766777777799777779977777776677777",
"77777777777777777777777777777777777777777777777777",
"77777777777777777777777777777777777777777777777777",
"77777777777777777777777777777777777777777777777777",
"77777777777777777777777777777777777777777777777777",
"77777777777777777777777777777777777777777777777777",
"77777777777777777777777777777777777777777777777777",
"77997779977797777766777667799777997779777776677766",
"77999799777799777766676677799979977779977776667667",
"77799797777779777776676777779979777777977777667677",
"77779777777777777777677777777977777777777777767777",
"77777777777777777777777777777777777777777777777777",
"77777777777777777777777777777777777777777777777777",
"77777799777977777777776677777779977797777777777667"
};
