/* XPM */
static char *c86b813718db4ef2a9b4a23059066270rWGEUuMPT3vvoTr3[] = {
/* columns rows colors chars-per-pixel */
"50 50 145 2 ",
"   c #69AB10",
".  c #66AA1E",
"X  c #74B916",
"o  c #73B91A",
"O  c #6EB72C",
"+  c #70B724",
"@  c #71B924",
"#  c #6DB632",
"$  c #6EB932",
"%  c #6BB43F",
"&  c #6DB83F",
"*  c #5DA84A",
"=  c #69B340",
"-  c #65B24E",
";  c #69B54B",
":  c #6ABA50",
">  c #64B25A",
",  c #5EAE6B",
"<  c #5BAD78",
"1  c #62B263",
"2  c #60B378",
"3  c #63B979",
"4  c #9DBE53",
"5  c #97BC5D",
"6  c #57AB87",
"7  c #58AB86",
"8  c #5BB488",
"9  c #54AA96",
"0  c #59AF95",
"q  c #5EBA90",
"w  c #60BC89",
"e  c #72B09B",
"r  c #4FA7AB",
"t  c #51A8A3",
"y  c #50A7AB",
"u  c #4CA5B5",
"i  c #4AA4BF",
"p  c #60C1A4",
"a  c #3F9FEA",
"s  c #3C9DF1",
"d  c #3B9DF8",
"f  c #3EA2F5",
"g  c #3EA2F8",
"h  c #4EABC4",
"j  c #46A3CE",
"k  c #50AEC6",
"l  c #53B8C2",
"z  c #55B5CD",
"x  c #52BAC9",
"c  c #45A3D0",
"v  c #43A1DC",
"b  c #4AADDE",
"n  c #59AFD3",
"m  c #46A2E6",
"M  c #47ACEB",
"N  c #4FBEEE",
"B  c #52B5E2",
"V  c #51BEE0",
"C  c #50B6ED",
"Z  c #40A3F7",
"A  c #45A9F7",
"S  c #49AEF7",
"D  c #42A6F8",
"F  c #45ABF8",
"G  c #4EB4F7",
"H  c #47B7FB",
"J  c #49B3F9",
"K  c #4CBDFB",
"L  c #55BBF7",
"P  c #50BBFB",
"I  c #57C1C5",
"U  c #59C3C9",
"Y  c #5FC5DB",
"T  c #61C2D4",
"R  c #5CCBE4",
"E  c #5BCEEF",
"W  c #5AC4F7",
"Q  c #5FCAF6",
"!  c #53C4FB",
"~  c #59C6FC",
"^  c #57CAFB",
"/  c #5BCDFA",
"(  c #5ED2FA",
")  c #61CBE8",
"_  c #6BD6E7",
"`  c #6FDCE8",
"'  c #70DDEE",
"]  c #62CEF5",
"[  c #60C7FC",
"{  c #62CAFC",
"}  c #6CCBFC",
"|  c #63D1F6",
" . c #6ADCF7",
".. c #64D5F9",
"X. c #6DD5FA",
"o. c #67DAF9",
"O. c #6BDEF8",
"+. c #74D3FB",
"@. c #79D4FB",
"#. c #71DFF8",
"$. c #79DBFA",
"%. c #6FE3F7",
"&. c #74E5F5",
"*. c #7CE7F7",
"=. c #77E9F5",
"-. c #7BEDF5",
";. c #73E2F8",
":. c #7DF1F5",
">. c #82D5FB",
",. c #8DDEFB",
"<. c #9ADFFB",
"1. c #9FE1FB",
"2. c #92EFF8",
"3. c #82F4F5",
"4. c #8BF4F6",
"5. c #85FAF4",
"6. c #8AFEF4",
"7. c #96F3F6",
"8. c #94FFF5",
"9. c #9BFBF6",
"0. c #A1E7FA",
"q. c #ADE7FA",
"w. c #BAEDFB",
"e. c #A3FFF5",
"r. c #ABFFF6",
"t. c #A5F7F8",
"y. c #B6FEF7",
"u. c #BAFFF7",
"i. c #BDF0FB",
"p. c #BAFBF8",
"a. c #C1EFFB",
"s. c #C5F2FB",
"d. c #CBF4FA",
"f. c #C6FFF8",
"g. c #CCFDF9",
"h. c #D5F7FB",
"j. c #D1FEF8",
"k. c #D6FFF9",
"l. c #DFFBFA",
"z. c #DDFFF9",
"x. c #DDFDFA",
"c. c #E1FCFA",
"v. c #E3FDFA",
"b. c #E7FFFA",
"n. c #E8FFFA",
/* pixels */
"X X X X X X X X X X X X X X X X X X X X X X X X X X X X X X X X X X X X X X X X X X X X X X X X X X ",
"X X X X X X X X X X X X X X X X X X X X X X X X X X X X X X X X X X X X X X X X X X X X X X X X X X ",
"X X X X X X X X X X X X X X X X X X X X X X X X X X X X X X X X X X X X X X X X X X X X X X X X X X ",
"X X X X X X X X X X X X X 4 X X X X X X X X X X X X X X X X X X X X X X X X 4 X X X X X X X X X X X ",
"X X X X X X X X 4 X X X X 4 X X X X X X X X X X   X X X X X X X X 4 X X X X 4 X X X X X X X X X X   ",
"X X X X X X X 4 4 X X X X X X X X X X X X X X     X X X X X X X 4 4 X X X X X X X X X X X X X X     ",
"X X X 4 4 X X 4 X X X X X X X X X X X     X X   X X X X 4 4 X X 4 X X X X X X X X X X X     X X   X ",
"X X X X 4 4 X X X X X X X X X X X X X X     X X X X X X X 4 4 X X X X X X X X X X X X X X     X X X ",
"X X X X X 4 X X X X X X X X X X X X X X X   X X X o - 6 6 6 e + X X X X X X X X X X X X X X   X X X ",
"X X X X X X X X X X X X X X X X X X X X X X X X X + 6 d d d v # X X X X X X X X X X X X X X X X X X ",
"X X X 4 4 X X X 4 4 X X X X X X o = - * * - - ; . + 6 d Z G B 1 - 5 4 X X X X X X X X X     X X X   ",
"X X 4 4 X X X X X 4 4 X X X X X # u a a a a a c ; + 6 d G 3.-.M v ; 4 4 X X X X X X X     X X X X X ",
"X X X X X X X X X X X X # - - - 1 z G F D A G B 2 > t d J =.=.L C 2 - # o X X X X X X X X X X X X X ",
"X X X X X X X X X X X X < c v v b ' -...K ^ -.=.B v a d D ! / -.-.B v < + X X X X X X X X X X X X X ",
"X X X X X X X X X X O # 0 M D g F =.5.%.^ ..4.4.L g D A J ! / 5.5.L A 0 % O o X X X X X X X X X X X ",
"X X X X X X X X X + r v ) -.&.! ! -.6.5.3.9.j.d.} K ..3.3.3.5.6.6.3.3.) v r O X X X X X X X X X X X ",
"X X X X X X X X X @ i g ] :.=./ / 4.8.8.8.r.z.h.>.{ #.3.5.6.6.8.8.6.6.| D i # X X X X X X X X X X X ",
"X X X X X X X X X @ l H ! / ..=.4.p.j.j.j.k.b.v.d.w.,./ o.5.8.f.g.9.6. .K l $ X X X X X X X X X X X ",
"X X 4 4 X X X 4 5 $ I ! ! ! ( 5.8.g.l.v.b.n.n.n.n.z.1.! ..6.9.z.v.e.6.%.! T & + o X X     X X X     ",
"X X 4 4 4 X 4 4 i h ` -.-.-.:.6.5.$.@.q.v.n.n.n.n.b.h.a.s.g.j.b.v.e.6.3.:.' n y = X X       X     X ",
"X X X 4 4 X 4 X d Z =.6.6.6.6.6.3./ ! <.l.n.n.n.n.n.n.n.n.n.n.n.v.e.6.6.6.=.A v - X X X     X   X X ",
"X X X X 4 X X X d g W ] ] ] |  .#.,.1.a.v.n.n.n.n.n.n.n.n.n.n.n.b.f.u.2.;./ D v - X X X X   X X X X ",
"X X X X X X X X d d d d d d D K [ a.n.n.n.n.n.n.n.n.n.n.n.n.n.n.n.n.n.<.! H g v - X X X X X X X X X ",
"X X X X X X X X i i i i v f F ^ X.s.n.n.n.n.n.n.n.n.n.n.n.n.n.n.n.n.n.0...! g v - X X X X X X X X X ",
"X X X X X X 4 4 + + + 5 q N / :.8.g.n.n.n.n.n.n.n.n.n.n.n.n.n.n.n.n.n.y.4.&.A v - X X X X X X     X ",
"X X X X X X X X X o = - p E  .9.r.k.n.n.n.n.n.n.n.n.n.n.n.n.n.n.b.k.j.t.3.` k y = X X X X X X X X X ",
"X X X X X X X X X + r v ) :.9.j.z.b.n.n.n.n.n.n.n.n.n.n.n.n.n.n.v.r.8.;.^ U ; # o X X X X X X X X X ",
"X X X X X X X X X + i d Q :.9.z.n.n.n.n.n.n.n.n.n.n.n.n.n.n.n.n.v.9.3.o.K x ; # # # + X X X X X X X ",
"X X X X X X X X X + i d J ! @.h.n.n.n.n.n.n.n.n.n.n.n.n.n.n.n.n.z.@.! J g f m v v v < X X X X X X X ",
"X X X X X X X X 4 + i d J ! +.d.z.b.n.n.n.n.n.n.n.n.n.n.n.n.b.h.d.+.! K A A A A g d 6 X X X X X X   ",
"X X X X X X X 4 4 + i d W =.4.9.r.k.n.n.n.n.n.n.n.n.n.n.n.n.h.>.+.*.-.=.=.=.=.O.S d 6 X X X X X     ",
"X X X 4 4 X X 4 X + u a ] 3.5.6.8.j.n.b.v.v.l.v.b.n.n.n.n.n.h.} ~ :.6.6.5.5.5.-.C a 7 X     X X   X ",
"X X X X 4 4 X X X o = - p E o.5.8.j.b.f.e.7.@.>.d.n.n.n.n.b.v.s.i.9.6.&.( / / R 3 - # X X     X X X ",
"X X X X X 4 X X X X X X w N / 3.8.j.v.u.8.-.! [ a.n.n.n.n.n.n.n.v.e.6.O.! K K V : X X X X X   X X X ",
"X X X X X X X X X X X X 8 M ! 3.8.r.y.e.6.3.%.#.,.1.a.n.z.u.u.u.y.*.O.O.O...J b - X X X X X X X X X ",
"X X X 4 4 X X X 4 4 X X 6 a G 3.6.6.6.6.6.6.6.3./ ! <.n.j.8.6.6.5./ K O.5.=.A v - X X X     X X X   ",
"X X 4 4 X X X X X 4 4 X , u z ' =.5.6.3.:.-.=.;.! P ,.j.p.3.:.6.5.^ H / &._ h y = X X     X X X X X ",
"X X X X X X X X X X X X o + > v S =.5.%.! K D g g D ] 8.3.! ^ 5.5.G d g g h % + o X X X X X X X X X ",
"X X X X X X X X X X X X X X = y h _ =. .( ! g s j h Y =. .K K ;.&.z i i i 9 O X X X X X X X X X X X ",
"X X X X X X X X X X X X X X o # ; h S | :.;.A v 1 % 0 A D g g A M 1 # # # O o X X X X X X X X X X X ",
"X X X X X X X X X X X X X X X X # i Z ] 5.=.A v - + 6 d d d d d a - X X X X X X X X X X X X X X X X ",
"X X X X X X X X X X X X X X X X X X X X X X X X X X X X X X X X X X X X X X X X X X X X X X X X X X ",
"X X X X X X X X X X X X X X X X X X X X X X X X X X X X X X X X X X X X X X X X X X X X X X X X X X ",
"X X 4 4 X X X 4 4 X X X 4 X X X X X     X X X     X X 4 4 X X X 4 4 X X X 4 X X X X X     X X X     ",
"X X 4 4 4 X 4 4 X X X X 4 4 X X X X       X     X X X 4 4 4 X 4 4 X X X X 4 4 X X X X       X     X ",
"X X X 4 4 X 4 X X X X X X 4 X X X X X     X   X X X X X 4 4 X 4 X X X X X X 4 X X X X X     X   X X ",
"X X X X 4 X X X X X X X X X X X X X X X   X X X X X X X X 4 X X X X X X X X X X X X X X X   X X X X ",
"X X X X X X X X X X X X X X X X X X X X X X X X X X X X X X X X X X X X X X X X X X X X X X X X X X ",
"X X X X X X X X X X X X X X X X X X X X X X X X X X X X X X X X X X X X X X X X X X X X X X X X X X ",
"X X X X X X 4 4 X X X 4 X X X X X X X X X X     X X X X X X X 4 4 X X X 4 X X X X X X X X X X     X "
};
